<?xml version="1.0" encoding="utf-8"?>
<svg xmlns="http://www.w3.org/2000/svg" width="1200" height="900" viewBox="0 0 1200 900">
<style>text{font-family:Arial,sans-serif;font-size:12px;fill:#222} .station{fill:#ff6b6b;stroke:#fff;stroke-width:2}</style>
<rect width="100%" height="100%" fill="#f8f6f2"/>
<circle class="station" cx="1151.4" cy="20.0" r="6"/>
<text x="1159.4" y="24.0">Ahyeon</text>
<circle class="station" cx="600.8" cy="880.0" r="6"/>
<text x="608.8" y="884.0">City 					Hall</text>
<circle class="station" cx="821.4" cy="20.0" r="6"/>
<text x="829.4" y="24.0">Seryu</text>
<circle class="station" cx="788.3" cy="20.0" r="6"/>
<text x="796.3" y="24.0">Sema</text>
<circle class="station" cx="720.1" cy="20.0" r="6"/>
<text x="728.1" y="24.0">Osan</text>
<circle class="station" cx="733.2" cy="20.0" r="6"/>
<text x="741.2" y="24.0">Jinwi</text>
<circle class="station" cx="895.9" cy="20.0" r="6"/>
<text x="903.9" y="24.0">Jiksan</text>
<circle class="station" cx="688.7" cy="20.0" r="6"/>
<text x="696.7" y="24.0">Asan</text>
<circle class="station" cx="1008.0" cy="20.0" r="6"/>
<text x="1016.0" y="24.0">Suwon</text>
<circle class="station" cx="1087.3" cy="20.0" r="6"/>
<text x="1095.3" y="24.0">Gosaek</text>
<circle class="station" cx="1012.4" cy="20.0" r="6"/>
<text x="1020.4" y="24.0">Yamok</text>
<circle class="station" cx="498.7" cy="20.0" r="6"/>
<text x="506.7" y="24.0">Sari</text>
<circle class="station" cx="1167.2" cy="20.0" r="6"/>
<text x="1175.2" y="24.0">Sanggal</text>
<circle class="station" cx="906.2" cy="20.0" r="6"/>
<text x="914.2" y="24.0">Jiseok</text>
<circle class="station" cx="978.3" cy="20.0" r="6"/>
<text x="986.3" y="24.0">Samga</text>
<circle class="station" cx="740.0" cy="20.0" r="6"/>
<text x="748.0" y="24.0">Gojin</text>
<circle class="station" cx="865.2" cy="20.0" r="6"/>
<text x="873.2" y="24.0">Singal</text>
<circle class="station" cx="694.9" cy="20.0" r="6"/>
<text x="702.9" y="24.0">Guro</text>
<circle class="station" cx="743.2" cy="20.0" r="6"/>
<text x="751.2" y="24.0">Onsu</text>
<circle class="station" cx="602.4" cy="880.0" r="6"/>
<text x="610.4" y="884.0">Seoul 				Station</text>
<circle class="station" cx="1117.2" cy="20.0" r="6"/>
<text x="1125.2" y="24.0">Uiwang</text>
<circle class="station" cx="986.6" cy="20.0" r="6"/>
<text x="994.6" y="24.0">Gunpo</text>
<circle class="station" cx="1129.0" cy="20.0" r="6"/>
<text x="1137.0" y="24.0">Anyang</text>
<circle class="station" cx="1059.3" cy="20.0" r="6"/>
<text x="1067.3" y="24.0">Seoksu</text>
<circle class="station" cx="525.6" cy="20.0" r="6"/>
<text x="533.6" y="24.0">Guil</text>
<circle class="station" cx="648.0" cy="20.0" r="6"/>
<text x="656.0" y="24.0">Sosa</text>
<circle class="station" cx="913.5" cy="20.0" r="6"/>
<text x="921.5" y="24.0">Bugae</text>
<circle class="station" cx="1142.4" cy="20.0" r="6"/>
<text x="1150.4" y="24.0">Dongsu</text>
<circle class="station" cx="1126.2" cy="20.0" r="6"/>
<text x="1134.2" y="24.0">Baegun</text>
<circle class="station" cx="977.3" cy="20.0" r="6"/>
<text x="985.3" y="24.0">Galsan</text>
<circle class="station" cx="1138.3" cy="20.0" r="6"/>
<text x="1146.3" y="24.0">Jakjeon</text>
<circle class="station" cx="895.2" cy="20.0" r="6"/>
<text x="903.2" y="24.0">Imhak</text>
<circle class="station" cx="1089.7" cy="20.0" r="6"/>
<text x="1097.7" y="24.0">Gyesan</text>
<circle class="station" cx="1067.6" cy="20.0" r="6"/>
<text x="1075.6" y="24.0">Dowon</text>
<circle class="station" cx="661.8" cy="20.0" r="6"/>
<text x="669.8" y="24.0">Juan</text>
<circle class="station" cx="1036.9" cy="20.0" r="6"/>
<text x="1044.9" y="24.0">Dohwa</text>
<circle class="station" cx="1108.3" cy="20.0" r="6"/>
<text x="1116.3" y="24.0">Doksan</text>
<circle class="station" cx="444.2" cy="20.0" r="6"/>
<text x="452.2" y="24.0">Ara</text>
<circle class="station" cx="931.1" cy="20.0" r="6"/>
<text x="939.1" y="24.0">Unseo</text>
<circle class="station" cx="86.6" cy="880.0" r="6"/>
<text x="94.6" y="884.0">Incheon Int'l 				Airport Cargo Terminal</text>
<circle class="station" cx="993.2" cy="880.0" r="6"/>
<text x="1001.2" y="884.0">Incheon Int'l  				Airport Terminal 1</text>
<circle class="station" cx="993.2" cy="880.0" r="6"/>
<text x="1001.2" y="884.0">Incheon Int'l  				Airport Terminal 2</text>
<circle class="station" cx="1114.8" cy="20.0" r="6"/>
<text x="1122.8" y="24.0">Gayang</text>
<circle class="station" cx="987.6" cy="20.0" r="6"/>
<text x="995.6" y="24.0">Magok</text>
<circle class="station" cx="1075.5" cy="20.0" r="6"/>
<text x="1083.5" y="24.0">Nodeul</text>
<circle class="station" cx="827.3" cy="20.0" r="6"/>
<text x="835.3" y="24.0">Eonju</text>
<circle class="station" cx="958.6" cy="20.0" r="6"/>
<text x="966.6" y="24.0">Balsan</text>
<circle class="station" cx="976.2" cy="20.0" r="6"/>
<text x="984.2" y="24.0">Mullae</text>
<circle class="station" cx="763.1" cy="20.0" r="6"/>
<text x="771.1" y="24.0">Sillim</text>
<circle class="station" cx="1088.6" cy="20.0" r="6"/>
<text x="1096.6" y="24.0">Sadang</text>
<circle class="station" cx="1097.6" cy="20.0" r="6"/>
<text x="1105.6" y="24.0">Seocho</text>
<circle class="station" cx="1113.1" cy="20.0" r="6"/>
<text x="1121.1" y="24.0">Sangdo</text>
<circle class="station" cx="361.8" cy="20.0" r="6"/>
<text x="369.8" y="24.0">Isu</text>
<circle class="station" cx="256.2" cy="880.0" r="6"/>
<text x="264.2" y="884.0">Express 				Bus Terminal</text>
<circle class="station" cx="20.0" cy="880.0" r="6"/>
<text x="28.0" y="884.0">Seoul  				Nat'l Univ.</text>
<circle class="station" cx="1073.8" cy="20.0" r="6"/>
<text x="1081.8" y="24.0">Daerim</text>
<circle class="station" cx="768.0" cy="20.0" r="6"/>
<text x="776.0" y="24.0">Singil</text>
<circle class="station" cx="802.8" cy="20.0" r="6"/>
<text x="810.8" y="24.0">Ichon</text>
<circle class="station" cx="856.6" cy="20.0" r="6"/>
<text x="864.6" y="24.0">Yaksu</text>
<circle class="station" cx="720.1" cy="20.0" r="6"/>
<text x="728.1" y="24.0">Oksu</text>
<circle class="station" cx="739.0" cy="20.0" r="6"/>
<text x="747.0" y="24.0">Sinsa</text>
<circle class="station" cx="937.6" cy="20.0" r="6"/>
<text x="945.6" y="24.0">Anguk</text>
<circle class="station" cx="1090.0" cy="20.0" r="6"/>
<text x="1098.0" y="24.0">Hongje</text>
<circle class="station" cx="910.4" cy="20.0" r="6"/>
<text x="918.4" y="24.0">Gusan</text>
<circle class="station" cx="1060.4" cy="20.0" r="6"/>
<text x="1068.4" y="24.0">Saejeol</text>
<circle class="station" cx="1034.5" cy="20.0" r="6"/>
<text x="1042.5" y="24.0">Susaek</text>
<circle class="station" cx="882.8" cy="20.0" r="6"/>
<text x="890.8" y="24.0">Gajwa</text>
<circle class="station" cx="1101.7" cy="20.0" r="6"/>
<text x="1109.7" y="24.0">Goksan</text>
<circle class="station" cx="641.4" cy="20.0" r="6"/>
<text x="649.4" y="24.0">Ilsan</text>
<circle class="station" cx="933.1" cy="20.0" r="6"/>
<text x="941.1" y="24.0">Jichuk</text>
<circle class="station" cx="1080.0" cy="20.0" r="6"/>
<text x="1088.0" y="24.0">Juyeop</text>
<circle class="station" cx="1109.3" cy="20.0" r="6"/>
<text x="1117.3" y="24.0">Yadang</text>
<circle class="station" cx="587.0" cy="20.0" r="6"/>
<text x="595.0" y="24.0">Paju</text>
<circle class="station" cx="813.8" cy="20.0" r="6"/>
<text x="821.8" y="24.0">Madu</text>
<circle class="station" cx="1130.4" cy="20.0" r="6"/>
<text x="1138.4" y="24.0">Daegok</text>
<circle class="station" cx="1121.0" cy="20.0" r="6"/>
<text x="1129.0" y="24.0">Aeogae</text>
<circle class="station" cx="1009.3" cy="20.0" r="6"/>
<text x="1017.3" y="24.0">Daechi</text>
<circle class="station" cx="778.3" cy="20.0" r="6"/>
<text x="786.3" y="24.0">Hanti</text>
<circle class="station" cx="841.8" cy="20.0" r="6"/>
<text x="849.8" y="24.0">Irwon</text>
<circle class="station" cx="869.3" cy="20.0" r="6"/>
<text x="877.3" y="24.0">Suseo</text>
<circle class="station" cx="1113.1" cy="20.0" r="6"/>
<text x="1121.1" y="24.0">Songpa</text>
<circle class="station" cx="944.9" cy="20.0" r="6"/>
<text x="952.9" y="24.0">Banpo</text>
<circle class="station" cx="1060.0" cy="20.0" r="6"/>
<text x="1068.0" y="24.0">Sangsu</text>
<circle class="station" cx="815.6" cy="20.0" r="6"/>
<text x="823.6" y="24.0">Mapo</text>
<circle class="station" cx="1090.0" cy="20.0" r="6"/>
<text x="1098.0" y="24.0">Gireum</text>
<circle class="station" cx="1156.9" cy="20.0" r="6"/>
<text x="1164.9" y="24.0">Yongdu</text>
<circle class="station" cx="1070.4" cy="20.0" r="6"/>
<text x="1078.4" y="24.0">Bomun</text>
<circle class="station" cx="1036.9" cy="20.0" r="6"/>
<text x="1044.9" y="24.0">Dolgoji</text>
<circle class="station" cx="1127.2" cy="20.0" r="6"/>
<text x="1135.2" y="24.0">Wolgok</text>
<circle class="station" cx="1078.3" cy="20.0" r="6"/>
<text x="1086.3" y="24.0">Majang</text>
<circle class="station" cx="1006.9" cy="20.0" r="6"/>
<text x="1014.9" y="24.0">Sindap</text>
<circle class="station" cx="645.9" cy="20.0" r="6"/>
<text x="653.9" y="24.0">Guui</text>
<circle class="station" cx="1027.6" cy="20.0" r="6"/>
<text x="1035.6" y="24.0">Jayang</text>
<circle class="station" cx="842.8" cy="20.0" r="6"/>
<text x="850.8" y="24.0">Anam</text>
<circle class="station" cx="1115.2" cy="20.0" r="6"/>
<text x="1123.2" y="24.0">Wolgye</text>
<circle class="station" cx="925.2" cy="20.0" r="6"/>
<text x="933.2" y="24.0">Hagye</text>
<circle class="station" cx="477.3" cy="20.0" r="6"/>
<text x="485.3" y="24.0">Mia</text>
<circle class="station" cx="695.9" cy="20.0" r="6"/>
<text x="703.9" y="24.0">Suyu</text>
<circle class="station" cx="893.1" cy="20.0" r="6"/>
<text x="901.1" y="24.0">Bosan</text>
<circle class="station" cx="1153.8" cy="20.0" r="6"/>
<text x="1161.8" y="24.0">Jihaeng</text>
<circle class="station" cx="1033.1" cy="20.0" r="6"/>
<text x="1041.1" y="24.0">Yangju</text>
<circle class="station" cx="1080.7" cy="20.0" r="6"/>
<text x="1088.7" y="24.0">Yangsu</text>
<circle class="station" cx="1100.4" cy="20.0" r="6"/>
<text x="1108.4" y="24.0">Sinwon</text>
<circle class="station" cx="910.4" cy="20.0" r="6"/>
<text x="918.4" y="24.0">Guksu</text>
<circle class="station" cx="591.4" cy="20.0" r="6"/>
<text x="599.4" y="24.0">Asin</text>
<circle class="station" cx="674.5" cy="20.0" r="6"/>
<text x="682.5" y="24.0">Obin</text>
<circle class="station" cx="927.3" cy="20.0" r="6"/>
<text x="935.3" y="24.0">Dosim</text>
<circle class="station" cx="1118.6" cy="20.0" r="6"/>
<text x="1126.6" y="24.0">Deokso</text>
<circle class="station" cx="572.8" cy="20.0" r="6"/>
<text x="580.8" y="24.0">Guri</text>
<circle class="station" cx="1011.1" cy="20.0" r="6"/>
<text x="1019.1" y="24.0">Mangu</text>
<circle class="station" cx="985.5" cy="20.0" r="6"/>
<text x="993.5" y="24.0">Sinnae</text>
<circle class="station" cx="850.4" cy="20.0" r="6"/>
<text x="858.4" y="24.0">Hoegi</text>
<circle class="station" cx="855.9" cy="20.0" r="6"/>
<text x="863.9" y="24.0">Jangji</text>
<circle class="station" cx="687.3" cy="20.0" r="6"/>
<text x="695.3" y="24.0">Sujin</text>
<circle class="station" cx="834.5" cy="20.0" r="6"/>
<text x="842.5" y="24.0">Yatap</text>
<circle class="station" cx="691.1" cy="20.0" r="6"/>
<text x="699.1" y="24.0">Imae</text>
<circle class="station" cx="892.8" cy="20.0" r="6"/>
<text x="900.8" y="24.0">Sunae</text>
<circle class="station" cx="1180.0" cy="20.0" r="6"/>
<text x="1188.0" y="24.0">Jeongja</text>
<circle class="station" cx="382.8" cy="20.0" r="6"/>
<text x="390.8" y="24.0">Ori</text>
<circle class="station" cx="1164.8" cy="20.0" r="6"/>
<text x="1172.8" y="24.0">Jukjeon</text>
<circle class="station" cx="807.6" cy="20.0" r="6"/>
<text x="815.6" y="24.0">Bangi</text>
<circle class="station" cx="1083.8" cy="20.0" r="6"/>
<text x="1091.8" y="24.0">Ogeum</text>
<circle class="station" cx="835.6" cy="20.0" r="6"/>
<text x="843.6" y="24.0">Gunja</text>
<circle class="station" cx="1147.2" cy="20.0" r="6"/>
<text x="1155.2" y="24.0">Geoyeo</text>
<circle class="station" cx="899.0" cy="20.0" r="6"/>
<text x="907.0" y="24.0">Jamsil</text>
<circle class="station" cx="956.2" cy="20.0" r="6"/>
<text x="964.2" y="24.0">Dogok</text>
<circle class="station" cx="944.9" cy="20.0" r="6"/>
<text x="952.9" y="24.0">Moran</text>
<circle class="station" cx="1086.6" cy="20.0" r="6"/>
<text x="1094.6" y="24.0">Surisan</text>
<circle class="station" cx="1107.6" cy="20.0" r="6"/>
<text x="1115.6" y="24.0">Banwol</text>
<circle class="station" cx="1125.2" cy="20.0" r="6"/>
<text x="1133.2" y="24.0">Sanbon</text>
<circle class="station" cx="837.3" cy="20.0" r="6"/>
<text x="845.3" y="24.0">Gojan</text>
<circle class="station" cx="714.9" cy="20.0" r="6"/>
<text x="722.9" y="24.0">Choji</text>
<circle class="station" cx="901.8" cy="20.0" r="6"/>
<text x="909.8" y="24.0">Ansan</text>
<circle class="station" cx="673.8" cy="20.0" r="6"/>
<text x="681.8" y="24.0">Oido</text>
<circle class="station" cx="1163.5" cy="20.0" r="6"/>
<text x="1171.5" y="24.0">Godeok</text>
<circle class="station" cx="916.2" cy="20.0" r="6"/>
<text x="924.2" y="24.0">Gangil</text>
<circle class="station" cx="642.1" cy="20.0" r="6"/>
<text x="650.1" y="24.0">Misa</text>
<circle class="station" cx="794.9" cy="20.0" r="6"/>
<text x="802.9" y="24.0">Amsa</text>
<circle class="station" cx="894.2" cy="20.0" r="6"/>
<text x="902.2" y="24.0">Dasan</text>
<circle class="station" cx="1073.8" cy="20.0" r="6"/>
<text x="1081.8" y="24.0">Nowon</text>
<circle class="station" cx="1142.1" cy="20.0" r="6"/>
<text x="1150.1" y="24.0">Dong-o</text>
<circle class="station" cx="829.7" cy="20.0" r="6"/>
<text x="837.7" y="24.0">Hyoja</text>
<circle class="station" cx="848.3" cy="20.0" r="6"/>
<text x="856.3" y="24.0">Gonje</text>
<circle class="station" cx="1154.8" cy="20.0" r="6"/>
<text x="1162.8" y="24.0">Jangam</text>
<circle class="station" cx="996.6" cy="20.0" r="6"/>
<text x="1004.6" y="24.0">Balgok</text>
<circle class="station" cx="1102.4" cy="20.0" r="6"/>
<text x="1110.4" y="24.0">Madeul</text>
<circle class="station" cx="874.2" cy="20.0" r="6"/>
<text x="882.2" y="24.0">Onam</text>
<circle class="station" cx="1071.0" cy="20.0" r="6"/>
<text x="1079.0" y="24.0">Jinjeop</text>
<circle class="station" cx="1152.1" cy="20.0" r="6"/>
<text x="1160.1" y="24.0">Maseok</text>
<circle class="station" cx="1117.2" cy="20.0" r="6"/>
<text x="1125.2" y="24.0">Galmae</text>
<circle class="station" cx="1046.6" cy="20.0" r="6"/>
<text x="1054.6" y="24.0">Chunui</text>
<circle class="station" cx="1086.6" cy="20.0" r="6"/>
<text x="1094.6" y="24.0">Sangok</text>
<circle class="station" cx="1061.7" cy="20.0" r="6"/>
<text x="1069.7" y="24.0">Darwol</text>
<circle class="station" cx="1076.2" cy="20.0" r="6"/>
<text x="1084.2" y="24.0">Wolgot</text>
<circle class="station" cx="1102.8" cy="20.0" r="6"/>
<text x="1110.8" y="24.0">Yeonsu</text>
<circle class="station" cx="1137.9" cy="20.0" r="6"/>
<text x="1145.9" y="24.0">Songdo</text>
<circle class="station" cx="1103.1" cy="20.0" r="6"/>
<text x="1111.1" y="24.0">Pangyo</text>
<circle class="station" cx="815.2" cy="20.0" r="6"/>
<text x="823.2" y="24.0">Sinpo</text>
<circle class="station" cx="1008.3" cy="20.0" r="6"/>
<text x="1016.3" y="24.0">Sungui</text>
<circle class="station" cx="975.2" cy="20.0" r="6"/>
<text x="983.2" y="24.0">Mansu</text>
<circle class="station" cx="1170.3" cy="20.0" r="6"/>
<text x="1178.3" y="24.0">Unyeon</text>
<circle class="station" cx="1100.4" cy="20.0" r="6"/>
<text x="1108.4" y="24.0">Majeon</text>
<circle class="station" cx="679.6" cy="880.0" r="6"/>
<text x="687.6" y="884.0">Juan Nat'l  				Industrial Park</text>
<circle class="station" cx="1099.0" cy="20.0" r="6"/>
<text x="1107.0" y="24.0">Gajaeul</text>
<circle class="station" cx="1125.9" cy="20.0" r="6"/>
<text x="1133.9" y="24.0">Chowol</text>
<circle class="station" cx="1001.4" cy="20.0" r="6"/>
<text x="1009.4" y="24.0">Icheon</text>
<circle class="station" cx="820.7" cy="20.0" r="6"/>
<text x="828.7" y="24.0">Bubal</text>
<circle class="station" cx="815.6" cy="20.0" r="6"/>
<text x="823.6" y="24.0">Yeoju</text>
<circle class="station" cx="761.8" cy="20.0" r="6"/>
<text x="769.8" y="24.0">Gaori</text>
<circle class="station" cx="384.2" cy="20.0" r="6"/>
<text x="392.2" y="24.0">Siu</text>
<circle class="station" cx="1133.8" cy="20.0" r="6"/>
<text x="1141.8" y="24.0">Seonbu</text>
<circle class="station" cx="828.3" cy="20.0" r="6"/>
<text x="836.3" y="24.0">Dalmi</text>
<circle class="station" cx="1146.9" cy="20.0" r="6"/>
<text x="1154.9" y="24.0">Sosaeul</text>
<circle class="station" cx="902.1" cy="20.0" r="6"/>
<text x="910.1" y="24.0">Wonsi</text>
<circle class="station" cx="1163.1" cy="20.0" r="6"/>
<text x="1171.1" y="24.0">Gochon</text>
<circle class="station" cx="481.5" cy="20.0" r="6"/>
<text x="489.5" y="24.0">Sau</text>
<circle class="station" cx="1148.3" cy="20.0" r="6"/>
<text x="1156.3" y="24.0">Unyang</text>
<circle class="station" cx="943.8" cy="20.0" r="6"/>
<text x="951.8" y="24.0">Janggi</text>
<circle class="station" cx="952.1" cy="20.0" r="6"/>
<text x="960.1" y="24.0">Masan</text>
<circle class="station" cx="864.2" cy="20.0" r="6"/>
<text x="872.2" y="24.0">Gurae</text>
<circle class="station" cx="815.2" cy="20.0" r="6"/>
<text x="823.2" y="24.0">Hagik</text>
<circle class="station" cx="941.4" cy="20.0" r="6"/>
<text x="949.4" y="24.0">Kintex</text>
</svg>